<?xml version="1.0" encoding="UTF-8" standalone="no"?>
<!-- Created with Inkscape (http://www.inkscape.org/) -->

<svg
   width="349.99982mm"
   height="139.99998mm"
   viewBox="0 0 349.99982 139.99998"
   version="1.1"
   id="svg1"
   xml:space="preserve"
   xmlns="http://www.w3.org/2000/svg"
   xmlns:svg="http://www.w3.org/2000/svg"><defs
     id="defs1"><linearGradient
       id="swatch52"><stop
         style="stop-color:#55ffdd;stop-opacity:1;"
         offset="0"
         id="stop52" /></linearGradient></defs><g
     id="layer1"
     transform="translate(6546.9737,-3175.23)"><rect
       style="fill:none;fill-opacity:1;stroke:none;stroke-width:0;stroke-linecap:round;stroke-dasharray:none"
       id="rect81"
       width="350"
       height="140"
       x="-6546.9736"
       y="3175.23" /><g
       id="g81-3-9"
       transform="translate(2645.8067,-2548.7466)"><g
         id="g79-2-4"><path
           style="fill:#f39e10;stroke-linecap:round;stroke-linejoin:round;paint-order:markers fill stroke"
           d="m -8888.1533,5749.8689 c -0.5812,0.019 -1.1925,0.1028 -1.8288,0.2533 -0.1306,0.031 -0.3949,0.1002 -0.3949,0.1002 0,0 -1.9045,0.6509 -2.914,1.1917 l -13.4886,7.2285 c -1.8538,1.2185 -2.3464,1.689 -2.6034,2.0216 -0.087,0.1326 -0.1669,0.269 -0.2408,0.4097 -0.021,0.04 -0.04,0.08 -0.06,0.1205 -0.058,0.1178 -0.1109,0.2375 -0.1592,0.3601 -0.021,0.053 -0.041,0.1056 -0.06,0.1592 -0.041,0.1152 -0.077,0.2324 -0.1091,0.3514 -0.016,0.059 -0.033,0.117 -0.047,0.1767 -0.029,0.1242 -0.05,0.2507 -0.069,0.3783 -0.01,0.056 -0.02,0.1098 -0.026,0.1659 -0.021,0.1827 -0.034,0.3678 -0.034,0.556 v 5e-4 3.959 6.7412 12.0597 5e-4 2.883 1.0759 6.7412 5.2514 5e-4 9.6914 13.0685 5e-4 c 0,0.1882 0.013,0.3733 0.034,0.556 0.01,0.056 0.016,0.1099 0.026,0.1659 0.019,0.1276 0.04,0.2541 0.069,0.3783 0.014,0.06 0.031,0.1177 0.047,0.1767 0.032,0.119 0.068,0.2362 0.1091,0.3514 0.019,0.054 0.039,0.1062 0.06,0.1592 0.048,0.1226 0.1012,0.2423 0.1592,0.3601 0.02,0.04 0.039,0.08 0.06,0.1205 0.074,0.1407 0.1543,0.2771 0.2413,0.4097 0.257,0.3326 0.7491,0.8031 2.6029,2.0216 l 13.4886,7.2285 c 1.0094,0.5408 2.914,1.1917 2.914,1.1917 0,0 0.2643,0.069 0.3949,0.1 4.5258,1.0713 7.7948,-1.2394 7.7948,-6.0673 v -7.1536 -15.6063 -7.1535 -5.2509 -10.6991 -7.154 -4.9067 -10.6996 -7.1541 c 0,-3.9226 -2.1582,-6.1827 -5.395,-6.318 v -5e-4 c -0.1867,-0.01 -0.3773,-0.01 -0.571,0 z"
           id="path77-7-6-5" /><path
           id="path1-82-0-2-8-22-7-8-9-05-3"
           style="fill:#f39e10;fill-opacity:1;stroke-linecap:round;stroke-linejoin:round;paint-order:markers fill stroke"
           d="m -8877.8065,5749.6602 c 0.1,0.1002 0.2038,0.1951 0.2977,0.3018 1.4194,1.612 2.1073,3.8129 2.1073,6.2327 v 7.154 10.6991 4.9062 7.1546 10.6991 5.2503 7.1541 15.6052 7.1546 c 0,2.3046 -0.6639,4.4204 -1.9316,5.9976 2.7977,-0.4443 4.6142,-2.6419 4.6142,-6.2394 v -7.1536 -15.6063 -7.1535 -5.2509 -10.6991 -7.154 -4.9067 -10.6996 -7.1541 c 0,-3.7957 -2.0242,-6.0286 -5.0876,-6.2921 z" /><path
           id="path1-82-0-2-8-22-7-8-9-2-4-8"
           style="fill:#f39e10;fill-opacity:1;stroke-linecap:round;stroke-linejoin:round;paint-order:markers fill stroke"
           d="m -8868.3381,5749.6603 c 0.1,0.1002 0.2038,0.1951 0.2977,0.3018 1.4194,1.612 2.1073,3.8129 2.1073,6.2327 v 7.154 10.6991 4.9062 7.1546 10.6991 5.2503 7.1541 15.6052 7.1546 c 0,2.3046 -0.6639,4.4204 -1.9316,5.9976 2.7977,-0.4443 4.6142,-2.6419 4.6142,-6.2394 v -7.1536 -15.6063 -7.1535 -5.2509 -10.6991 -7.154 -4.9067 -10.6996 -7.1541 c 0,-3.7957 -2.0242,-6.0286 -5.0876,-6.2921 z" /></g><path
         id="path9-9-2-2-5-4-5-7-7-7-1-6-82-2-94-4-6-1-0-5-9-2"
         style="fill:#f39e10;fill-opacity:1;stroke-linecap:round;stroke-linejoin:round;paint-order:markers fill stroke"
         d="m -9076.6993,5778.5045 c -7.8064,0.02 -15.4274,3.0969 -21.0881,8.7576 -1.8969,1.8969 -3.5022,4.0145 -4.8013,6.2849 a 7.5,7.5 0 0 0 -0.017,0.022 c -0.3015,0.5275 -0.5793,1.0619 -0.845,1.5999 -0.035,0.071 -0.068,0.1439 -0.1023,0.2155 -0.2329,0.4815 -0.451,0.9666 -0.6558,1.4552 -0.045,0.1082 -0.09,0.2164 -0.1343,0.3251 -0.1977,0.488 -0.3823,0.9789 -0.5524,1.4728 -0.029,0.083 -0.06,0.1652 -0.088,0.2485 -0.1877,0.5611 -0.36,1.125 -0.5126,1.6919 -0.048,0.1749 -0.085,0.352 -0.1297,0.5276 -0.089,0.3551 -0.174,0.7104 -0.2491,1.0672 -0.068,0.3182 -0.1279,0.6376 -0.1855,0.958 -0.029,0.1643 -0.056,0.3286 -0.082,0.493 -0.669,4.1121 -0.4992,8.3788 0.6134,12.531 a 7.50075,7.50075 0 0 0 0.1643,0.3959 c 2.0568,7.2651 6.8173,13.7698 13.8281,17.7974 14.2256,8.1722 32.5998,3.2276 40.8027,-10.9803 a 7.5,7.5 0 0 0 -2.744,-10.2443 7.5,7.5 0 0 0 -10.2464,2.744 c -4.1554,7.1973 -13.1336,9.6144 -20.3399,5.4746 -1.1566,-0.6644 -2.1758,-1.464 -3.0794,-2.3502 l 12.4468,-3.3352 21.6483,-5.7986 a 7.50075,7.50075 0 0 0 5.3031,-9.1855 c -2.7627,-10.3104 -10.8403,-18.388 -21.1507,-21.1507 -2.5776,-0.6906 -5.2005,-1.0239 -7.8026,-1.0175 z m 0.025,14.995 c 1.297,0 2.6055,0.1656 3.8948,0.5111 2.5614,0.6863 4.8341,2.0239 6.6467,3.824 l -12.4453,3.3342 -12.4452,3.3357 c 0.6698,-2.4646 1.967,-4.76 3.8416,-6.6347 2.8316,-2.8315 6.6163,-4.3641 10.5074,-4.3703 z" /><g
         id="g14-0-7-6-3-8-6-5-1-0-2-3-60-3"
         transform="translate(-9749.2232,233.71731)"
         style="fill:#f39e10;fill-opacity:1"><path
           id="rect8-3-4-1-8-4-8-3-9-0-0-7-5-1-0-5-6-1-0-4-9-0-5-0-8-5-3-5-2-2-0-7-0-0-0-5-4-7-03-2-7-8-4-8-8-9"
           style="fill:#f39e10;fill-opacity:1;stroke:none;stroke-width:5.01583;stroke-linecap:butt;stroke-linejoin:round;stroke-dasharray:none;stroke-opacity:1;paint-order:markers fill stroke"
           d="m 737.50013,5544.5754 a 30,30 0 0 0 -29.9997,29.9998 30,30 0 0 0 29.9997,30.0002 30,30 0 0 0 15.6338,-4.4018 l 4.6535,2.851 c 1.009,0.618 1.9809,1.0457 2.8944,1.2929 3.9589,1.0712 6.8187,-1.2404 6.8187,-6.0683 v -23.674 -1.079 c -0.023,0.033 -0.047,0.063 -0.07,0.096 a 30,30 0 0 0 -29.93,-29.0164 z m 0,15.0002 a 15,15 0 0 1 15.0003,14.9996 15,15 0 0 1 -15.0003,15.0001 15,15 0 0 1 -14.9996,-15.0001 15,15 0 0 1 14.9996,-14.9996 z" /></g><path
         id="path5-0-7-5-6-9-6-5-2-8-2-1-3-5-3-3-0-62-9-2-1-1-2-27-4"
         style="fill:#f39e10;fill-opacity:1;stroke-width:5.36283;stroke-linejoin:round;paint-order:markers fill stroke"
         d="m -8938.5604,5749.8706 c -3.2368,0.1355 -5.395,2.3969 -5.395,6.3195 v 7.1541 15.0916 a 30,30 0 0 0 -2.0004,-0.1431 30,30 0 0 0 -29.9997,29.9997 v 5e-4 a 30,30 0 0 0 29.0168,29.93 c -0.033,0.023 -0.063,0.047 -0.096,0.07 h 1.079 23.674 c 3.7028,0 5.9178,-1.6855 6.2694,-4.2555 0.036,-0.1873 0.057,-0.3801 0.057,-0.5783 v -34.1209 -10.4149 -12.5108 -13.0685 c 0,-1.6008 -0.7729,-3.0181 -1.9761,-3.9331 -0.4274,-0.325 -0.9098,-0.584 -1.4315,-0.7669 l -13.4886,-7.2285 c -1.0094,-0.5408 -1.9859,-0.9361 -2.914,-1.1921 v -6e-4 c -0.1326,-0.036 -0.2643,-0.07 -0.3948,-0.1007 -0.8486,-0.2009 -1.6529,-0.2824 -2.3999,-0.2512 z m -7.3954,43.4222 a 15,15 0 0 1 15.0001,14.9996 15,15 0 0 1 -15.0001,15.0001 15,15 0 0 1 -14.9996,-15.0001 15,15 0 0 1 14.9996,-14.9996 z" /><g
         id="g80-4-8"><path
           style="fill:#f39e10;fill-opacity:1;stroke-linecap:round;stroke-linejoin:round;paint-order:markers fill stroke"
           d="m -9140.5395,5769.4605 a 5,5 0 0 0 4.0547,5.793 c 7.7687,1.3698 14.8043,5.4297 19.875,11.4727 a 5,5 0 0 0 7.043,0.6172 5,5 0 0 0 0.6172,-7.045 c -6.5805,-7.8423 -15.7169,-13.1168 -25.7989,-14.8945 a 5,5 0 0 0 -5.791,4.0566 z"
           id="path9-9-2-6-3-4-7-0-2-0-7-3-0-5-3-8-5-8-0-4-1-45-9-3-0-0-3-0-5" /><path
           style="fill:#f39e10;fill-opacity:1;stroke-width:10;stroke-linecap:round;stroke-linejoin:round;paint-order:markers fill stroke"
           d="m -9138.0697,5755.4461 a 5.0000093,5.0000093 0 0 0 4.0571,5.7922 c 11.0636,1.9508 21.0825,7.7355 28.3037,16.3415 a 5.0000093,5.0000093 0 0 0 7.0443,0.6154 5.0000093,5.0000093 0 0 0 0.6173,-7.0443 c -8.731,-10.4053 -20.8533,-17.4032 -34.2301,-19.7619 a 5.0000093,5.0000093 0 0 0 -5.7923,4.0571 z"
           id="path9-9-2-6-3-4-7-0-2-8-5-5-7-8-6-2-7-7-1-7-36-4-8-8-78-9-3-2-7-1" /><path
           id="path5-0-7-5-6-9-6-5-2-8-2-1-0-1-3-8-8-8-81-3-58-2-7-1-60-3"
           style="fill:#f39e10;fill-opacity:1;stroke-width:5.36283;stroke-linejoin:round;paint-order:markers fill stroke"
           d="m -9149.7054,5749.8695 c -0.7469,-0.031 -1.5512,0.051 -2.3998,0.2517 -0.1305,0.031 -0.2622,0.065 -0.3948,0.1008 -0.9281,0.256 -1.9047,0.6513 -2.9141,1.1921 l -13.4885,7.2285 c -0.5217,0.1829 -1.0041,0.4424 -1.4315,0.7674 -1.2032,0.915 -1.9761,2.3318 -1.9761,3.9326 v 13.0685 12.423 10.5032 34.032 c 0,0.049 0.01,0.096 0.01,0.1442 0,0.04 0,0.08 0.01,0.1199 0,0.034 0.01,0.068 0.011,0.1013 0.2145,2.7392 2.4562,4.5573 6.3019,4.5573 h 23.674 1.079 c -0.033,-0.023 -0.063,-0.047 -0.096,-0.07 a 30,30 0 0 0 29.0163,-29.93 l 6e-4,-5e-4 a 30,30 0 0 0 -29.9998,-29.9997 30,30 0 0 0 -2.0003,0.1431 v -15.0916 -7.1541 c 0,-3.9226 -2.1582,-6.184 -5.3951,-6.3195 z m 7.5577,40.7298 c 1.6187,-2e-4 3.2335,0.1544 4.3713,0.4646 5.7244,1.553 10.5583,6.1586 12.3285,11.7455 0.8495,2.6811 0.8495,7.9741 0,10.6552 -1.6111,5.085 -5.7398,9.3567 -10.8288,11.204 -3.636,1.3197 -7.8695,1.3833 -11.4572,0.1721 l -1.4284,-0.4822 -2.6313,0.7312 c -3.6415,1.0121 -3.6248,1.0092 -4.3005,0.7452 v 0 c -1.0664,-0.4168 -1.1524,-1.2665 -0.4083,-4.037 l 0.6791,-2.528 -0.9705,-1.4376 c -2.0367,-3.0176 -3.2798,-7.5016 -2.9678,-10.7043 0.7705,-7.9081 5.8569,-14.0888 13.2178,-16.061 1.1548,-0.3094 2.7774,-0.4644 4.3961,-0.4646 z" /><path
           d="m -9135.1141,5798.1991 c -2.7614,2e-4 -4.9998,2.2391 -4.9997,5.0002 2e-4,2.7612 2.2385,4.9994 4.9997,4.9997 2.7614,2e-4 5,-2.2383 5.0002,-4.9997 1e-4,-2.7618 -2.2386,-5.0003 -5.0002,-5.0002 z m -14.7557,3.9982 c -2.7614,1e-4 -4.9998,2.239 -4.9997,5.0002 2e-4,2.7611 2.2386,4.9993 4.9997,4.9997 2.7614,0 5,-2.2383 5.0002,-4.9997 2e-4,-2.7618 -2.2386,-5.0003 -5.0002,-5.0002 z"
           style="fill:#f39e10;fill-opacity:1;stroke:none;stroke-width:1.60067;stroke-linecap:round;stroke-linejoin:round;stroke-dasharray:none;stroke-opacity:1;paint-order:markers fill stroke"
           id="path1-6-8-6-3-47-1-2-8-5-4-3-0-1-2" /></g></g></g></svg>
