<?xml version="1.0" encoding="UTF-8" standalone="no"?>
<!-- Created with Inkscape (http://www.inkscape.org/) -->

<svg
   width="449.99991mm"
   height="449.99942mm"
   viewBox="0 0 449.99991 449.99942"
   version="1.1"
   id="svg1"
   xml:space="preserve"
   xmlns="http://www.w3.org/2000/svg"
   xmlns:svg="http://www.w3.org/2000/svg"><defs
     id="defs1" /><g
     id="layer1"
     transform="translate(-3967.952,-9976.3093)"><g
       id="g90"
       transform="translate(3949.8443,2963.3333)"><circle
         style="fill:#cb6ce6;fill-opacity:1;stroke:none;stroke-width:319.509;stroke-opacity:1"
         id="path85-5"
         cx="243.10779"
         cy="7237.9751"
         r="225" /><path
         id="path40-2-1-5-2-2"
         style="vector-effect:non-scaling-stroke;fill:#ffffff;stroke:none;stroke-width:0.0758624;stroke-dasharray:none;-inkscape-stroke:hairline"
         d="m 243.58994,7084.1688 a 9.1710219,9.1710219 0 0 0 -6.485,11.2318 9.1710219,9.1710219 0 0 0 11.2323,6.4853 9.1710219,9.1710219 0 0 0 6.4843,-11.2326 9.1710219,9.1710219 0 0 0 -11.2316,-6.4845 z m -10.49309,18.1745 a 9.1710219,9.1710219 0 0 0 -6.485,11.2318 9.1710219,9.1710219 0 0 0 11.23219,6.4847 9.1710219,9.1710219 0 0 0 6.4849,-11.2321 9.1710219,9.1710219 0 0 0 -11.23209,-6.4844 z m 28.66759,-7.6814 a 9.1710219,9.1710219 0 0 0 -6.4851,11.2316 9.1710219,9.1710219 0 0 0 11.2322,6.4849 9.1710219,9.1710219 0 0 0 6.4849,-11.2322 9.1710219,9.1710219 0 0 0 -11.232,-6.4843 z m -134.56669,37.9509 c -0.944,0.2533 -1.8049,0.7503 -2.4964,1.4415 -1.4081,1.4079 -1.9582,3.4595 -1.4428,5.3828 l 63.0674,235.3705 0.2505,-0.067 c 0.9902,4.0004 3.0104,7.6719 5.8596,10.6493 6.0007,5.8505 14.6536,8.0812 22.7347,5.8604 l 0.067,0.2491 73.79059,-19.7721 -1e-4,-5e-4 c 16.9558,-4.5431 32.4172,-13.4689 44.8295,-25.8813 18.7539,-18.7536 29.2893,-44.1892 29.2893,-70.7108 -1e-4,-26.5217 -10.5357,-51.9569 -29.2894,-70.7105 -18.7536,-18.7535 -44.1893,-29.2897 -70.7109,-29.2897 -1.5076,0 -3.0102,0.044 -4.5096,0.1117 a 16.860994,16.860994 0 0 1 -1.245,12.2372 16.860994,16.860994 0 0 1 -0.037,0.064 c 0.4166,0.1678 0.83,0.3398 1.2287,0.5282 0.3428,0.1183 0.6365,0.2819 0.9644,0.4142 0.9753,0.4454 1.8967,0.9504 2.7567,1.511 0.4383,0.208 0.8651,0.4282 1.2797,0.6608 2.3366,1.8768 4.0326,4.1899 4.9711,6.7784 0.4711,0.982 0.8251,2.0063 1.058,3.0623 0.631,4.4064 -0.8168,9.0831 -4.092,13.2201 15.51,0.507 30.2615,6.8307 41.3239,17.7136 24.1355,24.1355 24.1357,63.2675 2e-4,87.403 -23.8084,23.7111 -62.1991,24.0552 -86.42959,0.7756 -0.3268,-0.2556 -0.6513,-0.5142 -0.973,-0.7761 -15.718,-15.8957 -21.6271,-39.0396 -15.4525,-60.5247 2.7836,-10.1265 8.1017,-19.3767 15.4526,-26.8772 3.1784,-3.1561 6.6906,-5.9571 10.4746,-8.354 -1.6448,-0.6855 -3.1467,-1.5337 -4.4738,-2.5264 -4.8393,-3.8834 -5.7047,-8.8931 -5.7058,-8.9035 -0.6802,-3.2118 -0.23,-6.6348 1.3071,-9.9346 0.1767,-0.4022 0.3748,-0.8035 0.5944,-1.202 0.4624,-0.9508 1.0121,-1.884 1.6448,-2.7921 1.133,-1.5728 2.5847,-3.0697 4.3037,-4.4376 0.079,-0.082 0.1575,-0.1626 0.2365,-0.2436 0.03,-0.018 0.061,-0.035 0.09,-0.054 0.2593,-0.2469 0.527,-0.4907 0.8025,-0.7308 0.4707,-0.3201 0.9827,-0.6067 1.4801,-0.9054 a 16.860994,16.860994 0 0 1 -4.4111,-8.9535 c -12.3666,4.9821 -23.7386,12.4167 -33.3487,22.0271 -0.7431,0.8553 -1.4718,1.7233 -2.1851,2.6034 l -7.7975,-29.1007 c 0.065,0.2433 0.1083,0.489 0.1705,0.7327 -0.095,-0.3551 -0.1766,-0.713 -0.2739,-1.0683 -2.8318,-10.3483 -8.3092,-19.7806 -15.8925,-27.3699 -5.1287,-4.9429 -11.0733,-8.962 -17.5714,-11.8798 -5.5169,-2.6442 -17.025,-6.6377 -21.6892,-5.7287 z m 124.01479,-19.9961 a 9.1710219,9.1710219 0 0 0 -6.4846,11.2332 9.1710219,9.1710219 0 0 0 11.2322,6.4849 9.1710219,9.1710219 0 0 0 6.4843,-11.2321 9.1710219,9.1710219 0 0 0 -11.2319,-6.486 z m -41.39509,13.3596 a 9.1710219,9.1710219 0 0 0 -6.4848,11.2322 9.1710219,9.1710219 0 0 0 0,6e-4 h -5e-4 l 1.461,5.4539 -5.4484,1.4816 a 9.1710219,9.1710219 0 0 0 -0.021,0.01 9.1710219,9.1710219 0 0 0 -6.4848,11.2327 9.1710219,9.1710219 0 0 0 11.2117,6.4883 l 0.021,-0.01 5.4682,-1.487 1.4135,5.2772 6e-4,-1e-4 a 9.1710219,9.1710219 0 0 0 11.2319,6.4843 9.1710219,9.1710219 0 0 0 6.4849,-11.2321 l -1.4024,-5.2363 5.4692,-1.4872 a 9.1710219,9.1710219 0 0 0 6.48489,-11.2323 9.1710219,9.1710219 0 0 0 -11.19139,-6.4925 l -5.5098,1.498 -1.4723,-5.4947 a 9.1710219,9.1710219 0 0 0 -11.232,-6.4849 z m 48.05489,11.4954 a 14.590908,14.590907 75 0 0 -10.3172,17.87 14.590908,14.590907 75 0 0 17.8702,10.3178 14.590908,14.590907 75 0 0 10.3171,-17.8705 14.590908,14.590907 75 0 0 -17.8701,-10.3173 z m -17.5254,32.0828 a 10.420093,10.420093 0 0 0 -7.21509,5.4503 10.420093,10.420093 0 0 0 4.50039,14.0324 10.420093,10.420093 0 0 0 14.0322,-4.5009 10.420093,10.420093 0 0 0 -4.5003,-14.0319 10.420093,10.420093 0 0 0 -5.2717,-1.1415 10.420093,10.420093 0 0 0 -1.5455,0.1916 z m 17.241,26.029 c 1.14,0.8892 1.9862,1.95 2.4983,3.1329 1.325,3.0574 0.063,5.9586 -0.8511,7.4691 -2.651,4.4315 -8.3041,7.2066 -12.4653,8.2406 -3.5658,0.8851 -6.933,1.0131 -10.2752,0.4608 -1.7664,-0.3616 -3.65259,-1.1359 -5.13869,-1.8373 -1.2153,-0.8267 -4.9938,-3.8879 -3.3347,-9.0687 -3.1389,6.7388 0.8173,11.6258 3.1515,13.4988 0.9513,0.7115 2.0276,1.3195 3.20629,1.811 4.0618,1.7143 8.7745,1.7549 12.7138,0.921 5.069,-1.0063 9.4674,-3.7105 12.7997,-7.6289 6.2357,-7.8765 1.3608,-15.2535 -2.3046,-16.9993 z m 3.7402,22.2872 c -0.2722,0.2956 -0.5542,0.5868 -0.8458,0.8723 -0.011,0.084 -0.022,0.1692 -0.033,0.2533 -0.6872,4.1894 -3.7077,8.7382 -9.1147,10.2826 -6.2792,1.7937 -12.303,-1.8662 -13.7187,-4.1644 -0.016,-0.021 -0.029,-0.044 -0.043,-0.065 -0.4113,-0.055 -0.8192,-0.1199 -1.222,-0.1937 0.033,0.1896 0.07,0.3787 0.1126,0.5668 2.3104,6.4428 8.6049,10.1567 15.5763,8.4454 6.3654,-1.5624 10.9606,-7.9132 9.4899,-15.1617 -0.058,-0.2811 -0.1251,-0.5595 -0.2012,-0.8358 z m -28.86119,28.566 c -3.0585,0.9414 -3.7437,4.8098 -1.507,7.5573 6.36179,7.1163 18.01399,8.7932 27.02809,4.2553 -13.564,-3.295 -12.1674,-11.5318 -23.3384,-12.1304 -0.83109,0.029 -1.56159,0.1266 -2.18269,0.3178 z m -9.7343,8.1519 c -10.1357,19.3305 -3.1392,45.4511 15.31759,57.0926 14.2642,9.7774 34.0646,10.0302 48.6638,0.833 13.7672,-8.1474 22.0328,-24.1231 21.2342,-40.0465 -0.4937,-8.7346 -2.9118,-18.4292 -9.8326,-24.2896 -6.7463,-4.9984 -17.8121,-4.2991 -22.4483,3.2453 -5.7337,7.216 -11.2845,16.1455 -21.0656,18.0227 -12.2362,2.9912 -27.14759,-2.5534 -31.86919,-14.8575 z" /></g></g><style
     type="text/css"
     id="style1"><![CDATA[
		.numbers {fill:#999;font-size:10px;}
	]]></style></svg>
