<?xml version="1.0" encoding="UTF-8" standalone="no"?>
<!-- Created with Inkscape (http://www.inkscape.org/) -->

<svg
   width="330mm"
   height="330.00055mm"
   viewBox="0 0 330 330.00055"
   version="1.1"
   id="svg1"
   xml:space="preserve"
   xmlns="http://www.w3.org/2000/svg"
   xmlns:svg="http://www.w3.org/2000/svg"><defs
     id="defs1" /><g
     id="layer1"
     transform="translate(-8010.7293,-11500.052)"><circle
       style="fill:none;fill-opacity:1;stroke:none;stroke-width:234.307;stroke-opacity:1"
       id="path85-3-7"
       cx="8175.729"
       cy="11665.052"
       r="165" /><path
       id="path40-2-1-5-2-8-1"
       style="vector-effect:non-scaling-stroke;fill:#ffffff;stroke:none;stroke-width:0.0758624;stroke-dasharray:none;-inkscape-stroke:hairline"
       d="m 8176.2114,11511.247 a 9.1710219,9.1710219 0 0 0 -6.485,11.232 9.1710219,9.1710219 0 0 0 11.2323,6.485 9.1710219,9.1710219 0 0 0 6.4843,-11.233 9.1710219,9.1710219 0 0 0 -11.2316,-6.484 z m -10.4931,18.174 a 9.1710219,9.1710219 0 0 0 -6.485,11.232 9.1710219,9.1710219 0 0 0 11.2322,6.485 9.1710219,9.1710219 0 0 0 6.4849,-11.232 9.1710219,9.1710219 0 0 0 -11.2321,-6.485 z m 28.6676,-7.681 a 9.1710219,9.1710219 0 0 0 -6.4851,11.232 9.1710219,9.1710219 0 0 0 11.2322,6.485 9.1710219,9.1710219 0 0 0 6.4849,-11.233 9.1710219,9.1710219 0 0 0 -11.232,-6.484 z m -134.5667,37.951 c -0.944,0.253 -1.8049,0.75 -2.4964,1.441 -1.4081,1.408 -1.9582,3.46 -1.4428,5.383 l 63.0674,235.371 0.2505,-0.07 c 0.9902,4 3.0104,7.672 5.8596,10.649 6.0007,5.85 14.6536,8.081 22.7347,5.86 l 0.067,0.249 73.7906,-19.772 h -10e-5 c 16.9558,-4.543 32.4172,-13.469 44.8295,-25.881 18.7539,-18.754 29.2893,-44.19 29.2893,-70.711 -10e-5,-26.522 -10.5357,-51.957 -29.2894,-70.711 -18.7536,-18.753 -44.1893,-29.289 -70.7109,-29.289 -1.5076,0 -3.0102,0.04 -4.5096,0.111 a 16.860994,16.860994 0 0 1 -1.245,12.237 16.860994,16.860994 0 0 1 -0.037,0.06 c 0.4166,0.168 0.83,0.34 1.2287,0.529 0.3428,0.118 0.6365,0.282 0.9644,0.414 0.9753,0.445 1.8967,0.95 2.7567,1.511 0.4383,0.208 0.8651,0.428 1.2797,0.661 2.3366,1.877 4.0326,4.19 4.9711,6.778 0.4711,0.982 0.8251,2.006 1.058,3.062 0.631,4.407 -0.8168,9.083 -4.092,13.22 15.51,0.507 30.2615,6.831 41.3239,17.714 24.1355,24.136 24.1357,63.268 2e-4,87.403 -23.8084,23.711 -62.1991,24.055 -86.4296,0.776 -0.3268,-0.256 -0.6513,-0.515 -0.973,-0.776 -15.718,-15.896 -21.6271,-39.04 -15.4525,-60.525 2.7836,-10.127 8.1017,-19.377 15.4526,-26.877 3.1784,-3.156 6.6906,-5.957 10.4746,-8.354 -1.6448,-0.686 -3.1467,-1.534 -4.4738,-2.527 -4.8393,-3.883 -5.7047,-8.893 -5.7058,-8.903 -0.6802,-3.212 -0.23,-6.635 1.3071,-9.935 0.1767,-0.402 0.3748,-0.803 0.5944,-1.202 0.4624,-0.951 1.0121,-1.884 1.6448,-2.792 1.133,-1.573 2.5847,-3.07 4.3037,-4.438 0.079,-0.08 0.1575,-0.162 0.2365,-0.243 0.03,-0.02 0.061,-0.03 0.09,-0.05 0.2593,-0.247 0.527,-0.491 0.8025,-0.731 0.4707,-0.32 0.9827,-0.607 1.4801,-0.905 a 16.860994,16.860994 0 0 1 -4.4111,-8.954 c -12.3666,4.982 -23.7386,12.417 -33.3487,22.027 -0.7431,0.856 -1.4718,1.724 -2.1851,2.604 l -7.7975,-29.101 c 0.065,0.243 0.1083,0.489 0.1705,0.733 -0.095,-0.355 -0.1766,-0.713 -0.2739,-1.069 -2.8318,-10.348 -8.3092,-19.78 -15.8925,-27.37 -5.1287,-4.942 -11.0733,-8.962 -17.5714,-11.879 -5.5169,-2.644 -17.025,-6.638 -21.6892,-5.729 z m 124.0148,-19.996 a 9.1710219,9.1710219 0 0 0 -6.4846,11.233 9.1710219,9.1710219 0 0 0 11.2322,6.485 9.1710219,9.1710219 0 0 0 6.4843,-11.232 9.1710219,9.1710219 0 0 0 -11.2319,-6.486 z m -41.3951,13.359 a 9.1710219,9.1710219 0 0 0 -6.4848,11.233 h -5e-4 l 1.461,5.454 -5.4484,1.482 a 9.1710219,9.1710219 0 0 0 -0.021,0.01 9.1710219,9.1710219 0 0 0 -6.4848,11.232 9.1710219,9.1710219 0 0 0 11.2117,6.489 l 0.021,-0.01 5.4682,-1.487 1.4135,5.277 h 6e-4 a 9.1710219,9.1710219 0 0 0 11.2319,6.484 9.1710219,9.1710219 0 0 0 6.4849,-11.232 l -1.4024,-5.236 5.4692,-1.488 a 9.1710219,9.1710219 0 0 0 6.4849,-11.232 9.1710219,9.1710219 0 0 0 -11.1914,-6.492 l -5.5098,1.498 -1.4723,-5.495 a 9.1710219,9.1710219 0 0 0 -11.232,-6.485 z m 48.0549,11.496 a 14.590908,14.590907 75 0 0 -10.3172,17.87 14.590908,14.590907 75 0 0 17.8702,10.318 14.590908,14.590907 75 0 0 10.3171,-17.871 14.590908,14.590907 75 0 0 -17.8701,-10.317 z m -17.5254,32.083 a 10.420093,10.420093 0 0 0 -7.2151,5.45 10.420093,10.420093 0 0 0 4.5004,14.032 10.420093,10.420093 0 0 0 14.0322,-4.501 10.420093,10.420093 0 0 0 -4.5003,-14.031 10.420093,10.420093 0 0 0 -5.2717,-1.142 10.420093,10.420093 0 0 0 -1.5455,0.192 z m 17.241,26.029 c 1.14,0.889 1.9862,1.95 2.4983,3.133 1.325,3.057 0.063,5.958 -0.8511,7.469 -2.651,4.431 -8.3041,7.206 -12.4653,8.24 -3.5658,0.885 -6.933,1.013 -10.2752,0.461 -1.7664,-0.362 -3.6526,-1.136 -5.1387,-1.837 -1.2153,-0.827 -4.9938,-3.888 -3.3347,-9.069 -3.1389,6.739 0.8173,11.626 3.1515,13.499 0.9513,0.711 2.0276,1.319 3.2063,1.811 4.0618,1.714 8.7745,1.755 12.7138,0.921 5.069,-1.007 9.4674,-3.711 12.7997,-7.629 6.2357,-7.877 1.3608,-15.254 -2.3046,-16.999 z m 3.7402,22.287 c -0.2722,0.295 -0.5542,0.587 -0.8458,0.872 -0.011,0.08 -0.022,0.169 -0.033,0.253 -0.6872,4.19 -3.7077,8.739 -9.1147,10.283 -6.2792,1.794 -12.303,-1.866 -13.7187,-4.164 -0.016,-0.02 -0.029,-0.04 -0.043,-0.06 -0.4113,-0.06 -0.8192,-0.12 -1.222,-0.194 0.033,0.189 0.07,0.379 0.1126,0.567 2.3104,6.442 8.6049,10.156 15.5763,8.445 6.3654,-1.562 10.9606,-7.913 9.4899,-15.162 -0.058,-0.281 -0.1251,-0.559 -0.2012,-0.835 z m -28.8612,28.566 c -3.0585,0.941 -3.7437,4.81 -1.507,7.557 6.3618,7.116 18.014,8.793 27.0281,4.255 -13.564,-3.295 -12.1674,-11.531 -23.3384,-12.13 -0.8311,0.03 -1.5616,0.127 -2.1827,0.318 z m -9.7343,8.152 c -10.1357,19.33 -3.1392,45.451 15.3176,57.092 14.2642,9.778 34.0646,10.03 48.6638,0.833 13.7672,-8.147 22.0328,-24.123 21.2342,-40.046 -0.4937,-8.735 -2.9118,-18.429 -9.8326,-24.29 -6.7463,-4.998 -17.8121,-4.299 -22.4483,3.245 -5.7337,7.216 -11.2845,16.146 -21.0656,18.023 -12.2362,2.991 -27.1476,-2.553 -31.8692,-14.857 z" /></g><style
     type="text/css"
     id="style1"><![CDATA[
		.numbers {fill:#999;font-size:10px;}
	]]></style></svg>
