<?xml version="1.0" encoding="UTF-8" standalone="no"?>
<!-- Created with Inkscape (http://www.inkscape.org/) -->

<svg
   width="107.33712mm"
   height="167.85539mm"
   viewBox="0 0 107.33712 167.85539"
   version="1.1"
   id="svg1"
   xml:space="preserve"
   xmlns="http://www.w3.org/2000/svg"
   xmlns:svg="http://www.w3.org/2000/svg"><defs
     id="defs1" /><g
     id="layer1"
     transform="translate(-4813.8983,-11597.525)"><path
       d="m 4860.8299,11597.839 c -4.8924,1.311 -7.7958,6.34 -6.485,11.232 1.311,4.893 6.3398,7.796 11.2323,6.485 4.8926,-1.311 7.7958,-6.34 6.4843,-11.233 -1.3113,-4.892 -6.3396,-7.795 -11.2316,-6.484 z m -10.4931,18.174 c -4.8924,1.311 -7.7958,6.34 -6.485,11.232 1.311,4.892 6.3398,7.796 11.2323,6.485 4.8924,-1.311 7.7957,-6.34 6.4849,-11.232 -1.3109,-4.892 -6.3397,-7.796 -11.2322,-6.485 z m 28.6676,-7.681 c -4.8924,1.311 -7.7959,6.34 -6.4851,11.232 1.3109,4.892 6.3397,7.796 11.2322,6.485 4.8929,-1.311 7.7965,-6.34 6.485,-11.233 -1.3114,-4.892 -6.3399,-7.795 -11.2321,-6.484 z m -10.5519,17.955 c -4.8927,1.311 -7.7961,6.34 -6.4846,11.233 1.3109,4.892 6.3397,7.796 11.2322,6.485 4.8921,-1.311 7.7952,-6.34 6.4843,-11.232 -1.3104,-4.893 -6.3392,-7.797 -11.2319,-6.486 z m -37.261,43.951 c -4.8928,1.311 -7.7963,6.34 -6.4848,11.233 h -5e-4 l 1.461,5.454 -5.4484,1.482 c -0.01,0 -0.014,0 -0.021,0.01 -4.8923,1.311 -7.7956,6.34 -6.4848,11.232 1.3094,4.884 6.3247,7.787 11.2117,6.489 l 0.021,-0.01 5.4682,-1.487 1.4135,5.277 h 6e-4 c 1.3113,4.892 6.3398,7.795 11.2319,6.484 4.8924,-1.311 7.7957,-6.34 6.4849,-11.232 l -1.4024,-5.236 5.4692,-1.488 c 4.8924,-1.311 7.7957,-6.34 6.4849,-11.232 -1.3083,-4.875 -6.31,-7.776 -11.1914,-6.492 l -5.5098,1.498 -1.4723,-5.495 c -1.3109,-4.892 -6.3396,-7.796 -11.232,-6.485 z m 65.0048,17.697 c -7.7836,2.086 -12.4028,10.086 -10.3172,17.87 2.0854,7.784 10.0862,12.404 17.8702,10.318 7.7841,-2.086 12.4033,-10.087 10.3171,-17.871 -2.0858,-7.784 -10.0865,-12.403 -17.8701,-10.317 z m 12.566,56.807 c -3.109,0.624 -5.7646,2.63 -7.2151,5.45 -2.632,5.118 -0.6171,11.4 4.5004,14.032 5.1178,2.632 11.4003,0.617 14.0322,-4.501 2.632,-5.118 0.6172,-11.4 -4.5003,-14.032 -1.6266,-0.836 -3.4448,-1.23 -5.2717,-1.141 -0.5192,0.02 -1.0358,0.09 -1.5455,0.192 z"
       style="vector-effect:non-scaling-stroke;fill:#000000;stroke:none;stroke-width:0.0758624;stroke-dasharray:none;-inkscape-stroke:hairline"
       id="path1-7-2" /></g><style
     type="text/css"
     id="style1"><![CDATA[
		.numbers {fill:#999;font-size:10px;}
	]]></style></svg>
