<svg xmlns="http://www.w3.org/2000/svg" version="1.1" xmlns:xlink="http://www.w3.org/1999/xlink" xmlns:svgjs="http://svgjs.com/svgjs" width="1000" height="1000"><rect width="1000" height="1000" rx="500" ry="500" fill="#ffffff"></rect><g transform="matrix(1,0,0,1,0,0)"><svg xmlns="http://www.w3.org/2000/svg" version="1.1" xmlns:xlink="http://www.w3.org/1999/xlink" xmlns:svgjs="http://svgjs.com/svgjs" width="240.00034mm" height="240.00009mm"><svg width="240.00034mm" height="240.00009mm" viewBox="0 0 240.00034 240.00009" version="1.1" id="svg1" xml:space="preserve" xmlns="http://www.w3.org/2000/svg" xmlns:svg="http://www.w3.org/2000/svg"><defs id="defs1"></defs><g id="layer1" transform="translate(-7723.716,-3245.3793)"><rect style="fill:none;fill-opacity:1;stroke-width:0.601604;stroke-linecap:square;paint-order:markers stroke fill" id="rect7-7-1-5-5-6-28-8-61-4" width="240" height="240" x="7723.7163" y="3245.3792"></rect><path id="path1-4-2-6-1-2-0-6-5-6-3-3-31" style="fill:#ffffff;stroke-width:1.053;stroke-linecap:square;paint-order:markers stroke fill" d="m 7845.7585,3327.3148 a 11.54596,18.48815 75 0 0 -14.8699,15.9378 11.54596,18.48815 75 0 0 3.1825,4.41 43.799914,43.799914 0 0 0 -15.9108,46.172 43.799914,43.799914 0 0 0 53.6438,30.9712 43.799914,43.799914 0 0 0 30.9712,-53.6437 43.799914,43.799914 0 0 0 -36.7102,-32.0161 11.54596,18.48815 75 0 0 0.5401,-5.4636 11.54596,18.48815 75 0 0 -20.8467,-6.3676 z"></path><g id="g15-8-3-26-2-0-9-3-03" transform="rotate(-15,11874.381,-19900.695)"><circle style="fill:#5e17eb;fill-opacity:1;stroke:none;stroke-width:1.77869;stroke-linecap:square;stroke-dasharray:none;paint-order:fill markers stroke" id="path12-2-0-2-8-0-7-8-5-3" cx="1994.9629" cy="1532.2593" r="4.7334843"></circle><circle style="fill:#cb6ce6;fill-opacity:1;stroke:none;stroke-width:0.921927;stroke-linecap:square;stroke-dasharray:none;paint-order:fill markers stroke" id="path12-4-9-0-3-5-71-7-2-1-21" cx="1985.5872" cy="1527.6069" r="2.453444"></circle><circle style="fill:#cb6ce6;fill-opacity:1;stroke:none;stroke-width:1.18852;stroke-linecap:square;stroke-dasharray:none;paint-order:fill markers stroke" id="path12-4-6-5-87-7-7-6-1-6-9-4" cx="1985.5872" cy="1518.8796" r="3.1629188"></circle><path id="path1-3-3-8-9-2-5-0-8-7-2-1-9-5-3-8-5-3-0-88" style="fill:#5e17eb;fill-opacity:1;stroke-width:1.15826;stroke-linecap:square;paint-order:markers stroke fill" d="m 1971.1787,1494.1456 c -9.3346,10e-5 -16.9018,4.7259 -16.9018,10.5554 0.01,2.4025 1.3275,4.7315 3.7414,6.6022 -16.7722,5.6074 -28.1074,21.2779 -28.1833,38.9625 10e-5,22.7923 18.477,41.2689 41.2693,41.2688 22.7923,10e-5 41.2692,-18.4765 41.2693,-41.2688 -0.053,-17.6384 -11.3108,-33.2931 -28.0148,-38.9578 2.4086,-1.8735 3.7217,-4.2042 3.7222,-6.6069 0,-5.8296 -7.5674,-10.5555 -16.9023,-10.5554 z m 0,0.4248 c 8.5388,-10e-5 15.4609,4.1276 15.4611,9.2191 -2e-4,2.5121 -1.7193,4.9152 -4.7599,6.6538 -0.3534,0.2019 -0.7226,0.3937 -1.1064,0.5747 -2.7309,1.2892 -6.1117,1.9908 -9.5948,1.9911 -3.5706,-0.01 -7.0279,-0.7478 -9.7849,-2.1007 -0.2372,-0.1166 -0.4684,-0.2373 -0.6935,-0.3622 -3.1662,-1.7402 -4.9719,-4.189 -4.9822,-6.7567 2e-4,-5.0914 6.9221,-9.219 15.4606,-9.2191 z m -8.5959,3.5098 c -1.6841,0.9473 -2.6106,2.1429 -2.6179,3.3787 10e-5,2.9182 5.0207,5.2838 11.2138,5.2839 6.1932,-10e-5 11.2137,-2.3657 11.2138,-5.2839 -0.01,-1.2356 -0.9336,-2.4309 -2.6174,-3.3781 1.0772,0.7444 1.6541,1.6128 1.6614,2.5011 10e-5,2.5489 -4.5925,4.6152 -10.2578,4.6152 -5.6653,0 -10.2579,-2.0663 -10.2578,-4.6152 0.01,-0.8885 0.5843,-1.7571 1.6619,-2.5017 z m 20.9026,13.854 c 15.6865,5.2981 26.2635,19.9901 26.3106,36.5471 0,21.3688 -17.3229,38.6917 -38.6917,38.6917 -21.3689,0 -38.6917,-17.3229 -38.6917,-38.6917 0.081,-16.6049 10.7489,-31.3063 26.5095,-36.5342 3.185,2.1069 7.6169,3.3036 12.2566,3.3094 4.6602,-6e-4 9.1134,-1.2027 12.3067,-3.3223 z m -22.8967,2.2045 c 1.1633,4.2706 5.5443,7.2885 10.59,7.2952 5.0459,-0.01 9.4272,-3.0244 10.5906,-7.2952 -0.3883,0.176 -0.7873,0.3425 -1.1963,0.4992 -1.666,3.2766 -5.3208,5.3804 -9.3473,5.3805 -4.0025,-10e-4 -7.6392,-2.0814 -9.3177,-5.3293 -0.4521,-0.1715 -0.8924,-0.3553 -1.3193,-0.5504 z m -20.8396,21.9573 c -1.7206,4.068 -2.6722,8.5407 -2.6722,13.2354 0,18.7788 15.2238,34.002 34.0026,34.002 18.7788,0 34.002,-15.2232 34.002,-34.002 0,-15.2277 -14.3416,-10.1114 -25.9085,-4.6571 l 3.5559,2.0526 3.4256,1.9787 3.296,1.9032 0.01,0.01 c 4.0665,1.988 6.5244,6.4491 5.764,11.1518 l -1.2738,7.875 c -0.4698,2.9059 -2.2865,5.3744 -4.5781,6.9763 -2.2915,1.6019 -5.0792,2.3601 -7.5602,1.7462 -1.162,-0.2875 -2.0631,-1.1953 -2.7854,-2.3105 -0.7222,-1.1151 -1.2793,-2.4671 -1.7131,-3.7812 -0.8354,-2.5299 -1.1605,-4.7531 -1.1875,-4.9294 l -0.8258,-0.8087 c -0.9448,0.1047 -2.2258,-0.1286 -3.4551,-0.8382 -1.5342,-0.8892 -2.5686,-2.4014 -2.9455,-4.1207 -0.5243,-0.341 -0.7956,-0.5394 -0.9178,-0.6408 -0.1383,-0.1148 -0.2182,-0.1844 -0.8557,-0.5782 -1.2176,-0.7518 -0.5195,-0.4129 -1.7891,-1.0351 h -0.01 -0.01 c -0.6598,-0.3552 -0.7591,-0.3891 -0.9276,-0.4511 -0.1489,-0.055 -0.4553,-0.1911 -1.0134,-0.475 -1.6776,0.5337 -3.5063,0.3955 -5.0431,-0.4919 -1.2264,-0.7118 -2.0688,-1.7033 -2.451,-2.574 l -1.1157,-0.3106 c -0.1584,0.059 -2.1893,0.8227 -4.7635,1.3281 -1.3363,0.2623 -2.7749,0.4452 -4.1073,0.3922 -1.3324,-0.053 -2.5778,-0.3354 -3.4768,-1.0991 -1.5449,-1.3126 -2.3137,-3.3456 -2.4727,-5.4731 -0.159,-2.1275 0.2853,-4.3717 1.2542,-6.197 0.2699,-0.5086 0.5937,-0.9928 0.9508,-1.4583 -1.0744,-1.8407 -1.8962,-3.9738 -2.4009,-6.4146 z m 2.9724,7.3355 c -0.2277,0.3237 -0.4413,0.6549 -0.6247,0.9994 l 1.0573,-0.3948 c -0.1457,-0.1997 -0.2938,-0.3965 -0.4326,-0.6046 z m 0.4346,0.6072 -1.063,0.3979 v 0.01 c -0.8666,1.6325 -1.2833,3.7162 -1.1389,5.6488 0.1444,1.9326 0.8439,3.6935 2.1192,4.7769 0.6315,0.5365 1.654,0.8099 2.8634,0.8579 1.2095,0.048 2.5856,-0.1203 3.8732,-0.3731 2.5752,-0.5056 4.7852,-1.3343 4.7852,-1.3343 l 0.154,-0.057 1.8381,0.5116 0.082,0.262 c 0.1412,0.4462 1.0312,1.6287 2.172,2.2908 1.3588,0.7846 2.9959,0.9216 4.4628,0.3809 l 0.2092,-0.078 0.199,0.1033 c 0.7249,0.3768 0.8609,0.4233 1.0315,0.4863 0.1678,0.062 0.3862,0.1528 1.0371,0.5023 1.2721,0.6234 0.6897,0.3491 1.8769,1.0821 0.6542,0.4041 0.8285,0.5417 0.9684,0.6578 0.1399,0.1161 0.2491,0.2114 0.9379,0.6506 l 0.1892,0.121 0.037,0.2191 c 0.2651,1.5404 1.2041,2.8883 2.5626,3.6757 1.1412,0.6584 2.6098,0.8354 3.068,0.7343 l 0.2677,-0.059 1.3674,1.3379 0.025,0.168 c 0,0 0.3606,2.4231 1.1953,4.9511 0.4173,1.264 0.9541,2.5514 1.6014,3.5507 0.6472,0.9994 1.3902,1.682 2.1777,1.8769 2.1154,0.5234 4.6421,-0.1282 6.7386,-1.5937 2.0964,-1.4655 3.7416,-3.7213 4.1599,-6.3087 l 1.2738,-7.8729 c 0.6915,-4.277 -1.545,-8.3105 -5.2384,-10.0996 l -0.018,-0.01 -3.3202,-1.9182 -3.4261,-1.9766 -4.1729,-2.4102 c -2.2819,1.0953 -4.4725,2.1767 -6.3423,3.0856 -2.2521,1.0948 -4.5697,1.884 -6.8812,2.404 0.6078,1.1313 0.6481,2.5346 -0.037,3.7212 -1.0544,1.8264 -3.4113,2.4491 -5.2441,1.3906 -1.5803,-0.9124 -2.2706,-2.7859 -1.756,-4.4555 -5.8809,-0.2502 -11.2033,-2.6049 -14.6353,-7.3086 z m 20.6334,6.8771 c -1.6612,0.3109 -3.3125,0.473 -4.9294,0.4749 -0.546,1.2917 -0.066,2.8086 1.1922,3.5352 1.3622,0.7867 3.0821,0.3306 3.8617,-1.0196 0.5594,-0.969 0.4693,-2.1227 -0.1245,-2.9905 z m 11.0923,5.5454 v 5e-4 c 0.1854,0 0.3719,0.01 0.5576,0.028 0.4951,0.062 0.9871,0.2222 1.4454,0.4868 1.8326,1.0584 2.4702,3.4097 1.416,5.2358 -1.0546,1.8261 -3.4098,2.4489 -5.2426,1.3907 -1.8331,-1.0581 -2.4723,-3.4095 -1.418,-5.2359 0.6919,-1.1985 1.9442,-1.8788 3.2416,-1.9058 z m -0.1188,1.0113 c -0.1811,0.012 -0.3604,0.042 -0.5349,0.088 -0.6979,0.1847 -1.3228,0.6376 -1.7125,1.3126 -0.7794,1.3503 -0.314,3.067 1.0485,3.8535 1.3622,0.7864 3.0816,0.3306 3.8613,-1.0195 0.7794,-1.35 0.3157,-3.0689 -1.0465,-3.8556 -0.5109,-0.2951 -1.0726,-0.4151 -1.6159,-0.3788 z m 14.0823,0 c 0.3825,-0.027 0.7769,0.055 1.1312,0.2599 0.9446,0.5457 1.2771,1.7657 0.7323,2.7089 -0.5446,0.9433 -1.7682,1.2676 -2.713,0.7224 -0.945,-0.5455 -1.2774,-1.7673 -0.7323,-2.7109 0.2723,-0.4717 0.713,-0.7874 1.2051,-0.9178 0.123,-0.033 0.2492,-0.054 0.3767,-0.062 z m -4.549,0.4227 v 5e-4 c 0.3825,-0.027 0.7768,0.056 1.1311,0.2599 0.9449,0.5456 1.2775,1.7675 0.7328,2.711 -0.5447,0.9436 -1.7681,1.2664 -2.713,0.7209 -0.9439,-0.5454 -1.2761,-1.7659 -0.7328,-2.7089 0.2723,-0.4717 0.7132,-0.79 1.2051,-0.9204 0.123,-0.033 0.2492,-0.054 0.3768,-0.063 z m 4.6157,0.5803 c -0.062,0 -0.1235,0.014 -0.1835,0.03 -0.2398,0.063 -0.4553,0.2196 -0.5901,0.4532 -0.27,0.4674 -0.1111,1.0543 0.3633,1.3281 0.474,0.2736 1.0604,0.1174 1.3301,-0.3499 0.2698,-0.4672 0.113,-1.0521 -0.3612,-1.326 -0.1778,-0.1032 -0.3717,-0.1452 -0.5586,-0.1333 z m -4.5486,0.4238 v 5e-4 c -0.062,0 -0.124,0.014 -0.1839,0.029 -0.2398,0.063 -0.4548,0.2196 -0.5897,0.4532 -0.2697,0.467 -0.1108,1.0542 0.3633,1.3281 0.4745,0.2739 1.0599,0.1176 1.3297,-0.3498 0.2698,-0.4673 0.1132,-1.0541 -0.3613,-1.3281 -0.1778,-0.1024 -0.3712,-0.1445 -0.5581,-0.1328 z m -39.6441,2.7125 a 32.073212,32.073193 30 0 0 12.5192,13.1909 32.073212,32.073193 30 0 0 17.6847,4.2462 24.282051,24.282038 30 0 1 -18.8366,-2.2515 24.282051,24.282038 30 0 1 -11.3673,-15.1856 z m 46.0324,0.01 v 5e-4 c 0.3825,-0.026 0.7764,0.057 1.1307,0.2615 0.9445,0.5457 1.2774,1.7661 0.7327,2.7094 -0.5446,0.9434 -1.7681,1.2654 -2.713,0.7204 -0.9449,-0.5456 -1.2768,-1.7656 -0.7322,-2.7089 0.2724,-0.4718 0.7129,-0.7894 1.205,-0.9198 0.123,-0.033 0.2493,-0.054 0.3768,-0.063 z m -4.7016,0.692 c 0.3821,-0.026 0.7749,0.057 1.1292,0.2614 0.9444,0.5454 1.2772,1.766 0.7328,2.7094 -0.5445,0.9432 -1.7682,1.2655 -2.7131,0.7204 -0.9447,-0.5456 -1.2771,-1.7674 -0.7322,-2.7109 0.2724,-0.4717 0.7146,-0.7875 1.2066,-0.9178 0.1231,-0.033 0.2494,-0.054 0.3767,-0.062 z m 4.7682,0.3116 v 5e-4 c -0.062,0 -0.124,0.014 -0.1839,0.029 -0.2399,0.063 -0.4547,0.2195 -0.5897,0.4532 -0.2695,0.4667 -0.1098,1.0539 0.3633,1.3281 0.4745,0.2737 1.0604,0.1181 1.3302,-0.3493 0.2697,-0.4671 0.1129,-1.0542 -0.3612,-1.3281 -0.1779,-0.1023 -0.3718,-0.145 -0.5587,-0.1333 z m -4.703,0.6919 c -0.062,0 -0.124,0.014 -0.184,0.03 -0.2398,0.063 -0.4527,0.2196 -0.5876,0.4532 -0.2699,0.4673 -0.113,1.0543 0.3613,1.3281 0.4742,0.2737 1.0621,0.1177 1.3317,-0.3494 0.2697,-0.4673 0.1107,-1.0543 -0.3633,-1.328 -0.1778,-0.1032 -0.3712,-0.1453 -0.5581,-0.1334 z"></path><path id="path1-0-6-1-4-2-2-3-7-9-1-7-3-5-0-6-2-0-4" style="fill:#cb6ce6;fill-opacity:1;stroke-width:1.15826;stroke-linecap:square;paint-order:markers stroke fill" d="m 1922.0341,1480.0533 v 118.3902 h 27.4598 v -5.2255 a 48.178238,48.178238 0 0 0 21.6096,5.2255 48.178238,48.178238 0 0 0 48.1794,-48.1784 48.178238,48.178238 0 0 0 -29.8353,-44.388 18.48815,11.54596 0 0 1 -1.7167,3.962 43.799914,43.799914 0 0 1 27.1735,40.4265 43.799914,43.799914 0 0 1 -43.7999,43.7999 43.799914,43.799914 0 0 1 -43.8004,-43.7999 43.799914,43.799914 0 0 1 27.3192,-40.4808 18.48815,11.54596 0 0 1 -1.7043,-3.8902 48.178238,48.178238 0 0 0 -3.4251,1.418 v -21.3325 c -4.2106,-1.2097 -9.4313,-2.2621 -15.9142,-3.0561 -4.6138,-0.5651 -8.4218,-1.5551 -11.5456,-2.8707 z m 36.1136,41.2735 c -8.7025,0.1208 -15.9477,8.4027 -17.3406,13.3614 0.5662,2.7381 1.5075,5.0631 2.7389,7.0094 0.2046,-0.1975 0.4136,-0.3926 0.6382,-0.5756 l 6.182,-5.039 c 3.5307,-2.8779 8.3923,-2.9663 11.9693,-0.5395 l 3.3037,1.9079 3.4267,1.9781 5.7888,3.342 0.9167,0.5296 0.9172,0.5292 c 0.8487,-0.415 1.7227,-0.8373 2.6133,-1.2578 0.8907,-0.4205 1.7984,-0.8392 2.7151,-1.2469 0.9167,-0.4077 1.8917,-0.7001 2.7693,-1.1808 -10.6256,-5.2229 -13.4137,-14.4612 -22.8322,-18.3364 -1.2898,-0.3493 -2.5632,-0.4988 -3.8064,-0.4816 z m -3.6551,16.9576 -1.155,2.0004 -1.9999,-1.1545 -1.4169,2.4547 1.9993,1.1544 -1.1544,1.9999 2.4551,1.4175 1.1545,-1.9999 1.9999,1.155 1.4174,-2.4552 -1.9998,-1.1544 1.1549,-2.0004 z m 6.7262,10.8862 c -0.3053,0.021 -0.6012,0.098 -0.8883,0.1994 0.561,-0.037 1.1207,-0.071 1.6893,-0.1452 -0.267,-0.047 -0.5352,-0.072 -0.801,-0.054 z"></path><path id="path8-7-4-2-2-7-3-81-49-9-7-1-77" style="vector-effect:non-scaling-stroke;fill:#5e17eb;fill-opacity:1;stroke:none;stroke-width:0.530292;stroke-linecap:square;-inkscape-stroke:hairline;paint-order:fill markers stroke" d="m 1964.9012,1501.2009 c 0,0 10.9347,-16.0751 -31.3216,-21.2506 -42.2561,-5.1754 -14.1508,-39.1339 -14.1508,-39.1339 0,0 -8.5308,17.3175 25.4539,21.4892 33.9847,4.1717 32.3215,39.4104 32.3215,39.4104 -5.0567,3.4347 -11.1484,0.5926 -12.303,-0.5151 z"></path><path id="path8-7-9-0-8-7-9-7-3-9-5-3-77" style="vector-effect:non-scaling-stroke;fill:#cb6ce6;fill-opacity:1;stroke:none;stroke-width:0.18128;stroke-linecap:square;-inkscape-stroke:hairline;paint-order:fill markers stroke" d="m 1945.3434,1440.2467 c 12.6731,-11.9648 -8.0966,-17.8182 -8.0966,-17.8182 0,0 6.0129,2.6916 -6.2991,16.0571 -12.3119,13.3655 5.1163,16.3074 5.1163,16.3074 0,0 -3.3937,-2.5812 9.2794,-14.5463 z"></path><path id="path8-7-9-75-9-2-2-4-91-5-4-9-9-98" style="vector-effect:non-scaling-stroke;fill:#5e17eb;fill-opacity:1;stroke:none;stroke-width:0.108938;stroke-linecap:square;-inkscape-stroke:hairline;paint-order:fill markers stroke" d="m 1951.7976,1455.5906 c 8.3562,2.9916 12.2619,-9.9323 12.2619,-9.9323 0,0 -4.1449,4.8099 -12.5009,1.8183 -8.3562,-2.9916 -10.0764,7.9913 -10.0764,7.9913 0,0 1.9596,-2.8687 10.3154,0.1227 z"></path></g></g></svg></svg></g></svg>